<svg id="Layer_1" data-name="Layer 1" xmlns="http://www.w3.org/2000/svg" xmlns:xlink="http://www.w3.org/1999/xlink" viewBox="0 0 121.94 71.62"><defs><style>.cls-1{fill:none;}.cls-2{clip-path:url(#clip-path);}.cls-3,.cls-4{fill:#373535;}.cls-4{font-size:7.33px;font-family:FranklinGothic-Demi, ITC Franklin Gothic;letter-spacing:0.37em;}.cls-5{letter-spacing:0em;}</style><clipPath id="clip-path" transform="translate(-2.78 -9.44)"><rect class="cls-1" x="-7.44" y="1.48" width="142.44" height="87.05"/></clipPath></defs><title>navlogo</title><g class="cls-2"><g class="cls-2"><path class="cls-3" d="M3.85,51.45q.51-.62.88-1a2.28,2.28,0,0,1,.74-.55A3,3,0,0,1,6,49.77a3.57,3.57,0,0,1,.51,0q2.36,0,6.75,3,.28.24,1.8,1.4t4.35,3.43Q22.15,45.06,24,38.28q2.17-8.42,4.16-14.1a56.66,56.66,0,0,1,3.74-8.81,14.54,14.54,0,0,1,1.2-1.71,24.17,24.17,0,0,1,1.71-1.87,15.6,15.6,0,0,1,2.31-1.71,4,4,0,0,1,2-.62q2.77-.15,5,3.35a29.09,29.09,0,0,1,3.49,10.05c0,.15.06.3.09.43a1.59,1.59,0,0,1,0,.35c0,.47-.09.7-.28.7s-.34-.28-.46-.86a28.59,28.59,0,0,0-1.43-4.63,27.39,27.39,0,0,0-2-4Q41.29,11.09,39,10.78q-2.91-.47-6.2,5.77-3.56,6.7-8,23.22Q24.14,42.1,23,46.69t-2.8,11.69q1.85,1.63,3.68,3.35l3.67,3.43q3.42,3,6.49,5.45T39.9,74.9Q47.67,80,53,80.2a8.21,8.21,0,0,0,7.07-3.58,10.24,10.24,0,0,0,1.18-2.1,24.33,24.33,0,0,0,1-2.92,29.64,29.64,0,0,0,.76-3.43,33,33,0,0,0,.39-3.7q.14-1.32.32-1.32c.18,0,.28.47.28,1.4a33.84,33.84,0,0,1-1,7.71A16.37,16.37,0,0,1,60.7,78a12.17,12.17,0,0,1-1.11.9,9.56,9.56,0,0,1-1.76,1,9.05,9.05,0,0,1-2.38.86,18.08,18.08,0,0,1-2.34.31q-5.32.24-13.71-4.75T19.56,61.19a15.28,15.28,0,0,1-2.4,6q-1.62,2.49-3.38,2.65Q10.22,70,6.57,64,3,58.46,2.78,54.18a4.24,4.24,0,0,1,1.06-2.73m14.84,9.12Q10.22,53.71,6,52.62q-1.76-.39-1.76,1.71A7.91,7.91,0,0,0,4.45,56a24.74,24.74,0,0,0,4.25,9q2.77,3.66,5.13,3.74,3.42.15,4.85-8.26" transform="translate(-2.78 -9.44)"/><path class="cls-3" d="M36.87,41.55q2.81,0,2.81,3.29a7.67,7.67,0,0,1-1.26,4,6.48,6.48,0,0,1-5.7,3.44,2.06,2.06,0,0,1-.92-.18,1.21,1.21,0,0,1-.55-.55q2.62,0,4.81-3A7.84,7.84,0,0,0,37.83,44q0-1.52-1.22-1.52-2.44,0-4.55,3.81a17.55,17.55,0,0,0-2.26,8.5q0,3.7,2.11,4.44a3.08,3.08,0,0,0,1,.15,3.25,3.25,0,0,0,1.33-.31,4.36,4.36,0,0,0,1.18-.76,8.6,8.6,0,0,0,1.59-2,.56.56,0,0,1,.55-.3c.45,0,.65.07.63.22a5.19,5.19,0,0,1-.83,1.37,12,12,0,0,1-1.33,1.53,6.15,6.15,0,0,1-1.59,1,4.6,4.6,0,0,1-2,.46,4.72,4.72,0,0,1-5-3.7,10,10,0,0,1-.33-2.59A14.87,14.87,0,0,1,28.32,49a12.92,12.92,0,0,1,5-6.4,6.87,6.87,0,0,1,3.55-1" transform="translate(-2.78 -9.44)"/><path class="cls-3" d="M51.25,41.55q2.81,0,2.81,3.29a7.67,7.67,0,0,1-1.26,4,6.48,6.48,0,0,1-5.7,3.44,2.06,2.06,0,0,1-.92-.18,1.21,1.21,0,0,1-.55-.55q2.62,0,4.81-3A7.84,7.84,0,0,0,52.21,44q0-1.52-1.22-1.52-2.44,0-4.55,3.81a17.55,17.55,0,0,0-2.26,8.5q0,3.7,2.11,4.44a3.08,3.08,0,0,0,1,.15,3.25,3.25,0,0,0,1.33-.31,4.36,4.36,0,0,0,1.18-.76,8.6,8.6,0,0,0,1.59-2A.56.56,0,0,1,52,56c.45,0,.65.07.63.22a5.19,5.19,0,0,1-.83,1.37,12,12,0,0,1-1.33,1.53,6.15,6.15,0,0,1-1.59,1,4.6,4.6,0,0,1-2,.46,4.72,4.72,0,0,1-5-3.7,10,10,0,0,1-.33-2.59A14.87,14.87,0,0,1,42.71,49a12.92,12.92,0,0,1,5-6.4,6.87,6.87,0,0,1,3.55-1" transform="translate(-2.78 -9.44)"/><path class="cls-3" d="M87.56,58.51a15.92,15.92,0,0,1-.29-1.76,33.17,33.17,0,0,1,.61-5.3h-.37q-4.7,8-7.06,8-3,0-3-4.77a16.49,16.49,0,0,1,1.4-6.25Q80.78,43.7,84,42a5.41,5.41,0,0,1,2.55-.74,3,3,0,0,1,1.87.52,2.43,2.43,0,0,1,.87,1l.22.48q-.11.63-.63.63c-.4,0-.62-.09-.69-.28a3.12,3.12,0,0,0-.2-.48,2.44,2.44,0,0,0-.52-.55,1.39,1.39,0,0,0-.93-.35q-2.4,0-4.36,4.33a23.2,23.2,0,0,0-2.22,9.39q0,2.22.89,2.22.7,0,2-1.57a33.28,33.28,0,0,0,2.68-3.94q2.44-4.07,4-7.06,1.25-2.66,2.59-2.66.7,0,.7.85-.33.7-.85,2a39.67,39.67,0,0,0-1.37,5.14,35.29,35.29,0,0,0-.85,7.66m.05-1.89c0,2.54.13,4.18.9,4.18a1.11,1.11,0,0,0,.81-.39,3.46,3.46,0,0,0,.67-1.16.49.49,0,0,1,.52-.41.25.25,0,0,1,.22.11.47.47,0,0,1,0,.37c-.05.17-.14.41-.26.72a5.7,5.7,0,0,1-.79,1.24,1.68,1.68,0,0,1-1.28.78q-1.55,0-2.38-2a9.3,9.3,0,0,1-.7-2.8" transform="translate(-2.78 -9.44)"/><path class="cls-3" d="M104.91,48.87q-1.41,0-1.4-3.07a8,8,0,0,1,.66-3.25q-2.51,2.18-5.62,8.12t-3.11,7.75c0,.3-.2.44-.59.44q-1.08,0-1.07-2.92a41.47,41.47,0,0,1,1.11-10q1.11-4.47,2.7-4.47c.47,0,.7.27.7.81a64.44,64.44,0,0,0-2.44,11.06h.26a37.78,37.78,0,0,1,6.62-10.8q2.07-2.22,3.77-2.22a.86.86,0,0,1,.61.22.72.72,0,0,1,.24.55,6.43,6.43,0,0,0-.63.78,11.1,11.1,0,0,0-1,2.46,13.68,13.68,0,0,0-.63,4.23c0,.2-.06.3-.18.3" transform="translate(-2.78 -9.44)"/><path class="cls-3" d="M108.56,59.49q-3.11,0-3.11-4.77a15.82,15.82,0,0,1,1.4-6.1q1.92-4.66,5.07-6.32a5.3,5.3,0,0,1,2.48-.74,3.11,3.11,0,0,1,1.7.39,2.05,2.05,0,0,1,.77.8l.19.41c-.07.42-.3.63-.67.63a.83.83,0,0,1-.79-.61,1.07,1.07,0,0,0-1.13-.61q-2.41,0-4.29,4.25A22,22,0,0,0,108,55.9q0,2.26.92,2.26.74,0,2.16-1.83A39.69,39.69,0,0,0,114,51.87q2.07-3.62,3.66-6.62a56.57,56.57,0,0,1,3.24-10.08q1.9-4.31,3.16-4.31a.56.56,0,0,1,.63.63q-.88,1.92-2.09,5.25t-2,6.34a69.25,69.25,0,0,0-1.52,7.19,48.79,48.79,0,0,0-.69,7.88q0,5.51,2.4,5.51a2.41,2.41,0,0,0,1.72-.79,5.2,5.2,0,0,0,1.13-1.57c.12-.27.34-.35.66-.22.13,0,.17.12.15.22-.15.32-.33.69-.55,1.11A6.72,6.72,0,0,1,122.59,64a2.91,2.91,0,0,1-2,.93q-4.4,0-4.4-8.28a40.81,40.81,0,0,1,.52-6.25h-.48q-5.21,9.14-7.69,9.13" transform="translate(-2.78 -9.44)"/><path class="cls-3" d="M77.19,45.42a3.45,3.45,0,0,1-2.05-.81,9.61,9.61,0,0,0-.74-2.83q-.55-1.24-1.26-1.24a1.5,1.5,0,0,0-1,.44,1.32,1.32,0,0,0-.48,1,3.59,3.59,0,0,0,.67,1.61A6.45,6.45,0,0,0,74,45.42v.15h0a25,25,0,0,1-1,6.82,20.17,20.17,0,0,1-2.44,5.73q-1.46,2.2-2.79,2.2-1.18,0-1.18-2a40.55,40.55,0,0,1,1.54-12.14c2.65-11.34,2.91-12.61,2.37-12.61S68,40.75,65.83,47.62l-1.22,2.92A59.38,59.38,0,0,1,61,56.76q-2.05,3.11-3,3.11-.78,0-.78-1.76a21.73,21.73,0,0,1,1.09-5.45q1.09-3.7,1.76-5.38t1.11-2.76l-.08.06a1,1,0,0,0,.12-.41,5.46,5.46,0,0,0,.71-.54A4,4,0,0,0,63,42.31a1.44,1.44,0,0,0,0-1.06,1.15,1.15,0,0,0-.65-.71q-.55-.2-1.41.8a11.24,11.24,0,0,0-1.55,2.44,2.6,2.6,0,0,1-1.88.18,1.94,1.94,0,0,1-1-.64,1.39,1.39,0,0,0,0,1,1.24,1.24,0,0,0,.8.75,3.3,3.3,0,0,0,1.42.15v0c-.41.25-.72.85-1.52,2.59A23.22,23.22,0,0,0,55.1,57q0,4.14,2.46,4.14t7-8.21a31.12,31.12,0,0,0-.18,3.25,7.61,7.61,0,0,0,.92,4.1,2.9,2.9,0,0,0,2.55,1.29q1.66,0,3.36-2.46A21.19,21.19,0,0,0,74,53a26.22,26.22,0,0,0,1.14-6.9l0,0a4.67,4.67,0,0,0,1.72.37,1.64,1.64,0,0,0,1.22-.42,1.27,1.27,0,0,0,.43-.91,2.72,2.72,0,0,1-1.39.26" transform="translate(-2.78 -9.44)"/><path class="cls-3" d="M76.11,37.14c0,.31-2.84.55-6.35.55s-6.35-.25-6.35-.55,2.84-.55,6.35-.55,6.35.25,6.35.55" transform="translate(-2.78 -9.44)"/><path class="cls-3" d="M70.69,31.07a1.63,1.63,0,1,0,1.62,1.63,1.62,1.62,0,0,0-1.62-1.63m0,2.47a.84.84,0,1,1,.84-.84.84.84,0,0,1-.84.84" transform="translate(-2.78 -9.44)"/></g><text class="cls-4" transform="translate(66.12 59.66)">DESIGN<tspan class="cls-5" x="41.65" y="0">S</tspan></text></g></svg>